<svg width="779" height="352" viewBox="0 0 779 352" fill="none" xmlns="http://www.w3.org/2000/svg">
<path d="M74.635 297.785C71.835 297.785 69.385 297.19 67.285 296C65.255 294.88 64.24 292.885 64.24 290.015C64.24 288.195 64.695 286.165 65.605 283.925C66.865 285.325 68.02 286.305 69.07 286.865C70.19 287.425 71.38 287.705 72.64 287.705C76.14 287.705 78.73 285.745 80.41 281.825C82.16 277.905 83.035 273.565 83.035 268.805C83.035 259.915 79.71 255.47 73.06 255.47C71.17 255.47 69.56 255.575 68.23 255.785L59.62 296H44.5L58.78 229.22L74.32 227.12L69.385 250.43H70.015C72.675 250.43 75.16 249.59 77.47 247.91C79.78 246.16 81.635 243.99 83.035 241.4C84.435 238.74 85.135 236.08 85.135 233.42C85.135 230.2 83.98 227.505 81.67 225.335C79.43 223.165 75.965 222.08 71.275 222.08C67.005 222.08 62.84 223.06 58.78 225.02C54.72 226.91 51.395 229.78 48.805 233.63C46.285 237.48 45.025 242.135 45.025 247.595C45.025 250.185 45.27 252.005 45.76 253.055C46.25 254.035 46.495 254.595 46.495 254.735C42.785 254.735 39.985 254 38.095 252.53C36.205 250.99 35.26 248.505 35.26 245.075C35.26 240.315 37.045 235.8 40.615 231.53C44.185 227.26 48.91 223.83 54.79 221.24C60.67 218.58 66.865 217.25 73.375 217.25C78.275 217.25 82.405 218.02 85.765 219.56C89.125 221.1 91.61 223.13 93.22 225.65C94.9 228.17 95.74 230.935 95.74 233.945C95.74 237.165 94.83 240.28 93.01 243.29C91.19 246.3 88.6 248.75 85.24 250.64C89.44 251.41 92.555 253.37 94.585 256.52C96.615 259.6 97.63 263.275 97.63 267.545C97.63 271.535 96.86 275.875 95.32 280.565C93.85 285.255 91.365 289.315 87.865 292.745C84.435 296.105 80.025 297.785 74.635 297.785ZM113.866 296.63C109.876 296.63 106.551 295.265 103.891 292.535C101.231 289.805 99.9006 285.535 99.9006 279.725C99.9006 274.545 100.916 269.12 102.946 263.45C105.046 257.71 108.126 252.88 112.186 248.96C116.316 244.97 121.216 242.975 126.886 242.975C129.756 242.975 131.891 243.465 133.291 244.445C134.691 245.425 135.391 246.72 135.391 248.33V249.065L136.546 243.5H151.666L144.106 279.2C143.826 280.25 143.686 281.37 143.686 282.56C143.686 285.57 145.121 287.075 147.991 287.075C149.951 287.075 151.631 286.165 153.031 284.345C154.501 282.525 155.656 280.145 156.496 277.205H160.906C158.316 284.765 155.096 289.91 151.246 292.64C147.466 295.3 143.651 296.63 139.801 296.63C136.861 296.63 134.481 295.825 132.661 294.215C130.911 292.535 129.861 290.12 129.511 286.97C127.481 289.84 125.206 292.185 122.686 294.005C120.236 295.755 117.296 296.63 113.866 296.63ZM120.691 286.445C122.441 286.445 124.156 285.64 125.836 284.03C127.586 282.35 128.776 280.075 129.406 277.205L134.446 253.475C134.446 252.565 134.096 251.69 133.396 250.85C132.696 249.94 131.611 249.485 130.141 249.485C127.341 249.485 124.821 251.13 122.581 254.42C120.341 257.64 118.591 261.56 117.331 266.18C116.071 270.73 115.441 274.755 115.441 278.255C115.441 281.755 115.931 283.995 116.911 284.975C117.961 285.955 119.221 286.445 120.691 286.445ZM166.929 296.63C163.569 296.63 160.839 295.58 158.739 293.48C156.709 291.38 155.694 288.23 155.694 284.03C155.694 282.28 155.974 280.005 156.534 277.205L167.769 224.6L183.309 222.5L171.234 279.2C170.954 280.25 170.814 281.37 170.814 282.56C170.814 283.96 171.129 284.975 171.759 285.605C172.459 286.165 173.579 286.445 175.119 286.445C177.149 286.445 179.039 285.605 180.789 283.925C182.539 282.175 183.799 279.935 184.569 277.205H188.979C186.389 284.765 183.064 289.91 179.004 292.64C174.944 295.3 170.919 296.63 166.929 296.63ZM194.922 296.63C191.562 296.63 188.832 295.58 186.732 293.48C184.702 291.38 183.687 288.23 183.687 284.03C183.687 282.28 183.967 280.005 184.527 277.205L190.827 247.7H187.362L188.202 243.5H191.667L194.817 229.01L210.357 226.91L206.787 243.5H213.087L212.247 247.7H205.947L199.227 279.2C198.947 280.25 198.807 281.37 198.807 282.56C198.807 283.96 199.122 284.975 199.752 285.605C200.452 286.165 201.572 286.445 203.112 286.445C205.142 286.445 207.032 285.605 208.782 283.925C210.532 282.175 211.792 279.935 212.562 277.205H216.972C214.382 284.765 211.057 289.91 206.997 292.64C202.937 295.3 198.912 296.63 194.922 296.63ZM225.121 296.63C221.131 296.63 217.806 295.265 215.146 292.535C212.486 289.805 211.156 285.535 211.156 279.725C211.156 274.545 212.171 269.12 214.201 263.45C216.301 257.71 219.381 252.88 223.441 248.96C227.571 244.97 232.471 242.975 238.141 242.975C241.011 242.975 243.146 243.465 244.546 244.445C245.946 245.425 246.646 246.72 246.646 248.33V249.065L247.801 243.5H262.921L255.361 279.2C255.081 280.25 254.941 281.37 254.941 282.56C254.941 285.57 256.376 287.075 259.246 287.075C261.206 287.075 262.886 286.165 264.286 284.345C265.756 282.525 266.911 280.145 267.751 277.205H272.161C269.571 284.765 266.351 289.91 262.501 292.64C258.721 295.3 254.906 296.63 251.056 296.63C248.116 296.63 245.736 295.825 243.916 294.215C242.166 292.535 241.116 290.12 240.766 286.97C238.736 289.84 236.461 292.185 233.941 294.005C231.491 295.755 228.551 296.63 225.121 296.63ZM231.946 286.445C233.696 286.445 235.411 285.64 237.091 284.03C238.841 282.35 240.031 280.075 240.661 277.205L245.701 253.475C245.701 252.565 245.351 251.69 244.651 250.85C243.951 249.94 242.866 249.485 241.396 249.485C238.596 249.485 236.076 251.13 233.836 254.42C231.596 257.64 229.846 261.56 228.586 266.18C227.326 270.73 226.696 274.755 226.696 278.255C226.696 281.755 227.186 283.995 228.166 284.975C229.216 285.955 230.476 286.445 231.946 286.445ZM279.759 296.63C276.399 296.63 273.564 296 271.254 294.74C268.944 293.41 267.229 291.73 266.109 289.7C264.989 287.6 264.429 285.43 264.429 283.19C264.429 280.88 264.989 278.885 266.109 277.205C267.159 275.455 268.454 274.195 269.994 273.425C272.724 268.525 275.104 263.59 277.134 258.62C279.164 253.58 281.089 248.155 282.909 242.345L298.449 240.245C298.799 249.205 299.394 258.9 300.234 269.33C300.584 273.53 300.759 276.575 300.759 278.465C300.759 280.075 300.619 281.405 300.339 282.455C303.629 280.565 306.149 278.815 307.899 277.205H312.309C307.829 282.385 302.474 286.76 296.244 290.33C294.214 292.5 291.694 294.11 288.684 295.16C285.744 296.14 282.769 296.63 279.759 296.63ZM276.399 288.335C278.989 288.335 281.159 287.565 282.909 286.025C284.659 284.485 285.534 282 285.534 278.57C285.534 276.47 285.324 273.53 284.904 269.75C284.204 261.77 283.749 256.415 283.539 253.685C281.859 259.215 279.024 265.83 275.034 273.53C276.644 274.37 277.449 275.595 277.449 277.205C277.449 278.535 276.994 279.725 276.084 280.775C275.244 281.825 274.159 282.35 272.829 282.35C271.359 282.35 270.414 281.895 269.994 280.985C269.994 283.505 270.484 285.36 271.464 286.55C272.514 287.74 274.159 288.335 276.399 288.335ZM320.482 296.63C316.492 296.63 313.167 295.265 310.507 292.535C307.847 289.805 306.517 285.535 306.517 279.725C306.517 274.545 307.532 269.12 309.562 263.45C311.662 257.71 314.742 252.88 318.802 248.96C322.932 244.97 327.832 242.975 333.502 242.975C336.372 242.975 338.507 243.465 339.907 244.445C341.307 245.425 342.007 246.72 342.007 248.33V249.065L343.162 243.5H358.282L350.722 279.2C350.442 280.25 350.302 281.37 350.302 282.56C350.302 285.57 351.737 287.075 354.607 287.075C356.567 287.075 358.247 286.165 359.647 284.345C361.117 282.525 362.272 280.145 363.112 277.205H367.522C364.932 284.765 361.712 289.91 357.862 292.64C354.082 295.3 350.267 296.63 346.417 296.63C343.477 296.63 341.097 295.825 339.277 294.215C337.527 292.535 336.477 290.12 336.127 286.97C334.097 289.84 331.822 292.185 329.302 294.005C326.852 295.755 323.912 296.63 320.482 296.63ZM327.307 286.445C329.057 286.445 330.772 285.64 332.452 284.03C334.202 282.35 335.392 280.075 336.022 277.205L341.062 253.475C341.062 252.565 340.712 251.69 340.012 250.85C339.312 249.94 338.227 249.485 336.757 249.485C333.957 249.485 331.437 251.13 329.197 254.42C326.957 257.64 325.207 261.56 323.947 266.18C322.687 270.73 322.057 274.755 322.057 278.255C322.057 281.755 322.547 283.995 323.527 284.975C324.577 285.955 325.837 286.445 327.307 286.445ZM370.29 243.5H385.41L384.045 250.01C386.425 247.91 388.56 246.3 390.45 245.18C392.41 244.06 394.51 243.5 396.75 243.5C398.99 243.5 400.74 244.27 402 245.81C403.33 247.35 403.995 249.205 403.995 251.375C403.995 253.405 403.33 255.19 402 256.73C400.67 258.27 398.815 259.04 396.435 259.04C394.895 259.04 393.845 258.69 393.285 257.99C392.795 257.22 392.41 256.135 392.13 254.735C391.92 253.825 391.71 253.16 391.5 252.74C391.29 252.32 390.905 252.11 390.345 252.11C388.875 252.11 387.615 252.425 386.565 253.055C385.585 253.615 384.29 254.63 382.68 256.1L374.28 296H359.16L370.29 243.5ZM471.172 297.785C465.712 297.785 462.982 295.44 462.982 290.75C462.982 289.21 463.192 287.46 463.612 285.5C464.102 283.47 464.767 280.88 465.607 277.73C466.587 274.44 467.322 271.64 467.812 269.33C468.302 267.02 468.547 264.955 468.547 263.135C468.547 258.375 466.447 255.995 462.247 255.995C461.127 255.995 459.972 256.135 458.782 256.415L450.382 296H435.262L449.542 229.22L465.082 227.12L459.937 251.375H460.777C463.507 251.375 466.027 250.43 468.337 248.54C470.647 246.65 472.432 244.305 473.692 241.505C475.022 238.635 475.687 235.835 475.687 233.105C475.687 229.885 474.707 227.26 472.747 225.23C470.857 223.13 467.987 222.08 464.137 222.08C458.467 222.08 453.497 223.095 449.227 225.125C444.957 227.155 441.632 230.095 439.252 233.945C436.942 237.795 435.787 242.345 435.787 247.595C435.787 250.185 436.032 252.005 436.522 253.055C437.012 254.035 437.257 254.595 437.257 254.735C433.477 254.735 430.642 253.965 428.752 252.425C426.932 250.815 426.022 248.19 426.022 244.55C426.022 240.07 427.842 235.73 431.482 231.53C435.192 227.26 439.917 223.83 445.657 221.24C451.397 218.58 457.137 217.25 462.877 217.25C468.127 217.25 472.537 218.02 476.107 219.56C479.677 221.1 482.337 223.165 484.087 225.755C485.837 228.275 486.712 231.04 486.712 234.05C486.712 237.34 485.697 240.63 483.667 243.92C481.637 247.21 478.872 249.905 475.372 252.005C478.032 252.775 479.887 254.07 480.937 255.89C482.057 257.64 482.617 259.845 482.617 262.505C482.617 264.535 482.372 266.705 481.882 269.015C481.392 271.255 480.692 274.055 479.782 277.415C479.222 279.585 478.697 281.72 478.207 283.82C477.717 285.92 477.472 287.67 477.472 289.07C477.472 290.68 477.822 292.115 478.522 293.375C479.292 294.635 480.307 295.51 481.567 296C477.297 297.19 473.832 297.785 471.172 297.785ZM503.783 296.42C498.603 296.42 494.508 295.09 491.498 292.43C488.488 289.77 486.983 285.57 486.983 279.83C486.983 275.07 487.963 269.785 489.923 263.975C491.883 258.165 495.033 253.16 499.373 248.96C503.713 244.69 509.173 242.555 515.753 242.555C524.713 242.555 529.193 248.155 529.193 259.355V259.46C529.403 259.53 529.788 259.565 530.348 259.565C532.658 259.565 535.318 258.97 538.328 257.78C541.338 256.52 544.068 255.015 546.518 253.265L547.463 256.1C545.433 258.27 542.773 260.125 539.483 261.665C536.263 263.135 532.728 264.185 528.878 264.815C528.318 271.185 526.883 276.75 524.573 281.51C522.263 286.27 519.288 289.945 515.648 292.535C512.008 295.125 508.053 296.42 503.783 296.42ZM507.983 286.97C509.663 286.97 511.343 286.025 513.023 284.135C514.703 282.175 516.173 279.55 517.433 276.26C518.693 272.9 519.603 269.19 520.163 265.13C518.273 264.71 517.328 263.24 517.328 260.72C517.328 257.85 518.413 255.96 520.583 255.05C520.443 252.74 520.093 251.165 519.533 250.325C518.973 249.415 517.993 248.96 516.593 248.96C514.283 248.96 512.043 250.64 509.873 254C507.703 257.36 505.953 261.385 504.623 266.075C503.293 270.765 502.628 274.895 502.628 278.465C502.628 281.825 503.013 284.1 503.783 285.29C504.553 286.41 505.953 286.97 507.983 286.97ZM598.436 296.63C594.166 296.63 591.016 295.51 588.986 293.27C587.026 290.96 586.046 288.125 586.046 284.765C586.046 283.295 586.221 281.65 586.571 279.83C586.921 277.94 587.271 276.12 587.621 274.37C588.041 272.62 588.321 271.5 588.461 271.01C589.021 268.56 589.546 266.145 590.036 263.765C590.526 261.385 590.771 259.46 590.771 257.99C590.771 254.42 589.511 252.635 586.991 252.635C585.171 252.635 583.561 253.545 582.161 255.365C580.761 257.115 579.641 259.425 578.801 262.295L571.661 296H556.541L564.206 259.775C564.416 258.935 564.521 258.06 564.521 257.15C564.521 254.07 563.471 252.53 561.371 252.53C559.411 252.53 557.696 253.44 556.226 255.26C554.826 257.01 553.706 259.355 552.866 262.295L545.726 296H530.606L541.736 243.5H556.856L555.701 248.96C559.271 244.97 563.541 242.975 568.511 242.975C574.671 242.975 578.276 245.985 579.326 252.005C583.176 246.055 588.041 243.08 593.921 243.08C597.491 243.08 600.326 244.06 602.426 246.02C604.526 247.98 605.576 250.955 605.576 254.945C605.576 256.975 605.331 259.25 604.841 261.77C604.351 264.22 603.651 267.23 602.741 270.8C602.181 272.97 601.656 275.105 601.166 277.205C600.746 279.235 600.536 280.845 600.536 282.035C600.536 283.435 600.851 284.52 601.481 285.29C602.111 286.06 603.196 286.445 604.736 286.445C606.836 286.445 608.516 285.71 609.776 284.24C611.036 282.7 612.296 280.355 613.556 277.205H617.966C615.376 284.905 612.366 290.085 608.936 292.745C605.576 295.335 602.076 296.63 598.436 296.63ZM628.566 296.63C623.386 296.63 619.361 295.3 616.491 292.64C613.621 289.91 612.186 285.675 612.186 279.935C612.186 275.105 613.131 269.785 615.021 263.975C616.911 258.165 619.991 253.16 624.261 248.96C628.531 244.69 633.956 242.555 640.536 242.555C648.236 242.555 652.086 245.915 652.086 252.635C652.086 256.555 650.966 260.16 648.726 263.45C646.486 266.74 643.511 269.4 639.801 271.43C636.091 273.39 632.136 274.51 627.936 274.79C627.796 276.89 627.726 278.29 627.726 278.99C627.726 282.42 628.321 284.765 629.511 286.025C630.701 287.215 632.626 287.81 635.286 287.81C639.066 287.81 642.286 286.935 644.946 285.185C647.676 283.435 650.651 280.775 653.871 277.205H657.441C649.671 290.155 640.046 296.63 628.566 296.63ZM628.776 269.75C631.366 269.61 633.816 268.7 636.126 267.02C638.506 265.34 640.396 263.205 641.796 260.615C643.266 258.025 644.001 255.295 644.001 252.425C644.001 249.555 643.126 248.12 641.376 248.12C638.856 248.12 636.371 250.325 633.921 254.735C631.541 259.145 629.826 264.15 628.776 269.75ZM660.989 243.5H676.109L674.744 250.01C677.124 247.91 679.259 246.3 681.149 245.18C683.109 244.06 685.209 243.5 687.449 243.5C689.689 243.5 691.439 244.27 692.699 245.81C694.029 247.35 694.694 249.205 694.694 251.375C694.694 253.405 694.029 255.19 692.699 256.73C691.369 258.27 689.514 259.04 687.134 259.04C685.594 259.04 684.544 258.69 683.984 257.99C683.494 257.22 683.109 256.135 682.829 254.735C682.619 253.825 682.409 253.16 682.199 252.74C681.989 252.32 681.604 252.11 681.044 252.11C679.574 252.11 678.314 252.425 677.264 253.055C676.284 253.615 674.989 254.63 673.379 256.1L664.979 296H649.859L660.989 243.5ZM708.656 296.42C703.476 296.42 699.381 295.09 696.371 292.43C693.361 289.77 691.856 285.57 691.856 279.83C691.856 275 692.801 269.715 694.691 263.975C696.581 258.165 699.661 253.16 703.931 248.96C708.201 244.69 713.661 242.555 720.311 242.555C728.571 242.555 733.016 247.28 733.646 256.73C735.186 256.38 736.551 255.54 737.741 254.21C738.931 252.81 740.051 251.235 741.101 249.485H744.461C742.571 253.265 740.891 256.24 739.421 258.41C737.951 260.51 736.026 262.225 733.646 263.555C733.226 270.135 731.861 275.91 729.551 280.88C727.311 285.85 724.371 289.7 720.731 292.43C717.091 295.09 713.066 296.42 708.656 296.42ZM712.856 286.97C715.446 286.97 717.861 284.87 720.101 280.67C722.341 276.47 723.881 271.29 724.721 265.13C723.041 264.5 722.201 262.925 722.201 260.405C722.201 257.675 723.181 255.855 725.141 254.945C725.001 252.705 724.616 251.165 723.986 250.325C723.426 249.415 722.481 248.96 721.151 248.96C718.841 248.96 716.636 250.64 714.536 254C712.436 257.29 710.721 261.315 709.391 266.075C708.131 270.765 707.501 274.895 707.501 278.465C707.501 281.825 707.886 284.1 708.656 285.29C709.426 286.41 710.826 286.97 712.856 286.97Z" fill="white"/>
<path d="M66.5 13L4.5 316H768L729.5 13L669 205L617 13L556.5 205L498.5 13L428.5 205L388 13L333 205L281.5 13L225.5 205L169 13L114 205L66.5 13Z" stroke="black" stroke-width="7"/>
</svg>
