<svg width="5165" height="2216" viewBox="0 0 5165 2216" fill="none" xmlns="http://www.w3.org/2000/svg">
<path d="M41 275.909C601.513 -138.954 852.563 -75.0195 958.5 441C1002 819.5 918.403 1106.79 1139.5 1412.91C1471.59 1608.18 1651.59 1585.58 1968.5 1456.91C2192.2 1160.76 2240.49 986.66 2281.5 671.409C2368.15 440.778 2442.3 336.391 2710 275.909C2978.03 257.664 3096.56 271.267 3275.5 319.909C3490.42 445.751 3570.77 553.877 3583 869.409C3553.87 1261.79 3629.28 1406.83 3824.5 1615.91C3960.03 1760.21 4055.43 1808.3 4231 1884.91C4449.69 1926.89 4572.31 1931.67 4791 1884.91C4906.97 1775.96 4960.2 1702.09 5016 1527.91C5104.11 1214.1 5123.43 1045.5 5120.5 753.909" stroke="black" stroke-width="7"/>
<path d="M8 319.812C568.513 -95.0515 819.563 -31.1165 925.5 484.903C969 863.403 885.403 1150.69 1106.5 1456.81C1438.59 1652.08 1684.59 1637.48 2001.5 1508.81C2225.2 1212.67 2273.49 1038.56 2314.5 723.312C2401.15 492.681 2475.3 388.294 2743 327.812C3011.03 309.567 3064.56 323.17 3243.5 371.812C3458.42 497.654 3538.77 605.78 3551 921.312C3521.87 1313.7 3597.28 1458.73 3792.5 1667.81C3928.03 1812.11 4023.43 1860.2 4199 1936.81C4417.69 1978.79 4609.31 1983.58 4828 1936.81C4943.97 1827.86 4997.2 1753.99 5053 1579.81C5141.11 1266 5160.43 1097.4 5157.5 805.812" stroke="black" stroke-width="7"/>
<g filter="url(#filter0_dd)">
<path d="M7 390.812C567.513 -24.0515 818.563 39.8835 924.5 555.903C968 934.403 884.403 1221.69 1105.5 1527.81C1437.59 1723.08 1683.59 1708.48 2000.5 1579.81C2224.2 1283.67 2272.49 1109.56 2313.5 794.312C2400.15 563.681 2474.3 459.294 2742 398.812C3010.03 380.567 3063.56 394.17 3242.5 442.812C3457.42 568.654 3537.77 676.78 3550 992.312C3520.87 1384.7 3596.28 1529.73 3791.5 1738.81C3927.03 1883.11 4022.43 1931.2 4198 2007.81C4416.69 2049.79 4608.31 2054.58 4827 2007.81C4942.97 1898.86 4996.2 1824.99 5052 1650.81C5140.11 1337 5159.43 1168.4 5156.5 876.812" stroke="black" stroke-width="7"/>
</g>
<path d="M41 306.909C601.513 -107.954 852.563 -44.0195 958.5 472C1002 850.5 918.403 1137.79 1139.5 1443.91C1471.59 1639.18 1651.59 1616.58 1968.5 1487.91C2192.2 1191.76 2240.49 1017.66 2281.5 702.409C2368.15 471.778 2442.3 367.391 2710 306.909C2978.03 288.664 3096.56 302.267 3275.5 350.909C3490.42 476.751 3570.77 584.877 3583 900.409C3553.87 1292.79 3629.28 1437.83 3824.5 1646.91C3960.03 1791.21 4055.43 1839.3 4231 1915.91C4449.69 1957.89 4572.31 1962.67 4791 1915.91C4906.97 1806.96 4960.2 1733.09 5016 1558.91C5104.11 1245.1 5123.43 1076.5 5120.5 784.909" stroke="black" stroke-width="7"/>
<path d="M8 350.812C568.513 -64.0515 819.563 -0.116516 925.5 515.903C969 894.403 885.403 1181.69 1106.5 1487.81C1438.59 1683.08 1684.59 1668.48 2001.5 1539.81C2225.2 1243.67 2273.49 1069.56 2314.5 754.312C2401.15 523.681 2475.3 419.294 2743 358.812C3011.03 340.567 3064.56 354.17 3243.5 402.812C3458.42 528.654 3538.77 636.78 3551 952.312C3521.87 1344.7 3597.28 1489.73 3792.5 1698.81C3928.03 1843.11 4023.43 1891.2 4199 1967.81C4417.69 2009.79 4609.31 2014.58 4828 1967.81C4943.97 1858.86 4997.2 1784.99 5053 1610.81C5141.11 1297 5160.43 1128.4 5157.5 836.812" stroke="black" stroke-width="7"/>
<g filter="url(#filter1_dd)">
<path d="M7 421.812C567.513 6.94846 818.563 70.8835 924.5 586.903C968 965.403 884.403 1252.69 1105.5 1558.81C1437.59 1754.08 1683.59 1739.48 2000.5 1610.81C2224.2 1314.67 2272.49 1140.56 2313.5 825.312C2400.15 594.681 2474.3 490.294 2742 429.812C3010.03 411.567 3063.56 425.17 3242.5 473.812C3457.42 599.654 3537.77 707.78 3550 1023.31C3520.87 1415.7 3596.28 1560.73 3791.5 1769.81C3927.03 1914.11 4022.43 1962.2 4198 2038.81C4416.69 2080.79 4608.31 2085.58 4827 2038.81C4942.97 1929.86 4996.2 1855.99 5052 1681.81C5140.11 1368 5159.43 1199.4 5156.5 907.812" stroke="black" stroke-width="7"/>
</g>
<path d="M41 407.909C601.513 -6.9545 852.563 56.9805 958.5 573C1002 951.5 918.403 1238.79 1139.5 1544.91C1471.59 1740.18 1651.59 1717.58 1968.5 1588.91C2192.2 1292.76 2240.49 1118.66 2281.5 803.409C2368.15 572.778 2442.3 468.391 2710 407.909C2978.03 389.664 3096.56 403.267 3275.5 451.909C3490.42 577.751 3570.77 685.877 3583 1001.41C3553.87 1393.79 3629.28 1538.83 3824.5 1747.91C3960.03 1892.21 4055.43 1940.3 4231 2016.91C4449.69 2058.89 4572.31 2063.67 4791 2016.91C4906.97 1907.96 4960.2 1834.09 5016 1659.91C5104.11 1346.1 5123.43 1177.5 5120.5 885.909" stroke="black" stroke-width="7"/>
<path d="M8 451.812C568.513 36.9485 819.563 100.883 925.5 616.903C969 995.403 885.403 1282.69 1106.5 1588.81C1438.59 1784.08 1684.59 1769.48 2001.5 1640.81C2225.2 1344.67 2273.49 1170.56 2314.5 855.312C2401.15 624.681 2475.3 520.294 2743 459.812C3011.03 441.567 3064.56 455.17 3243.5 503.812C3458.42 629.654 3538.77 737.78 3551 1053.31C3521.87 1445.7 3597.28 1590.73 3792.5 1799.81C3928.03 1944.11 4023.43 1992.2 4199 2068.81C4417.69 2110.79 4609.31 2115.58 4828 2068.81C4943.97 1959.86 4997.2 1885.99 5053 1711.81C5141.11 1398 5160.43 1229.4 5157.5 937.812" stroke="black" stroke-width="7"/>
<g filter="url(#filter2_dd)">
<path d="M7 522.812C567.513 107.948 818.563 171.883 924.5 687.903C968 1066.4 884.403 1353.69 1105.5 1659.81C1437.59 1855.08 1683.59 1840.48 2000.5 1711.81C2224.2 1415.67 2272.49 1241.56 2313.5 926.312C2400.15 695.681 2474.3 591.294 2742 530.812C3010.03 512.567 3063.56 526.17 3242.5 574.812C3457.42 700.654 3537.77 808.78 3550 1124.31C3520.87 1516.7 3596.28 1661.73 3791.5 1870.81C3927.03 2015.11 4022.43 2063.2 4198 2139.81C4416.69 2181.79 4608.31 2186.58 4827 2139.81C4942.97 2030.86 4996.2 1956.99 5052 1782.81C5140.11 1469 5159.43 1300.4 5156.5 1008.81" stroke="black" stroke-width="7"/>
</g>
<path d="M41 438.909C601.513 24.0456 852.563 87.9807 958.5 604C1002 982.5 918.403 1269.79 1139.5 1575.91C1471.59 1771.18 1651.59 1748.58 1968.5 1619.91C2192.2 1323.76 2240.49 1149.66 2281.5 834.409C2368.15 603.778 2442.3 499.391 2710 438.909C2978.03 420.664 3096.56 434.267 3275.5 482.909C3490.42 608.751 3570.77 716.877 3583 1032.41C3553.87 1424.79 3629.28 1569.83 3824.5 1778.91C3960.03 1923.21 4055.43 1971.3 4231 2047.91C4449.69 2089.89 4572.31 2094.67 4791 2047.91C4906.97 1938.96 4960.2 1865.09 5016 1690.91C5104.11 1377.1 5123.43 1208.5 5120.5 916.909" stroke="black" stroke-width="7"/>
<path d="M8 482.812C568.513 67.9485 819.563 131.883 925.5 647.903C969 1026.4 885.403 1313.69 1106.5 1619.81C1438.59 1815.08 1684.59 1800.48 2001.5 1671.81C2225.2 1375.67 2273.49 1201.56 2314.5 886.312C2401.15 655.681 2475.3 551.294 2743 490.812C3011.03 472.567 3064.56 486.17 3243.5 534.812C3458.42 660.654 3538.77 768.78 3551 1084.31C3521.87 1476.7 3597.28 1621.73 3792.5 1830.81C3928.03 1975.11 4023.43 2023.2 4199 2099.81C4417.69 2141.79 4609.31 2146.58 4828 2099.81C4943.97 1990.86 4997.2 1916.99 5053 1742.81C5141.11 1429 5160.43 1260.4 5157.5 968.812" stroke="black" stroke-width="7"/>
<g filter="url(#filter3_dd)">
<path d="M7 553.812C567.513 138.948 818.563 202.883 924.5 718.903C968 1097.4 884.403 1384.69 1105.5 1690.81C1437.59 1886.08 1683.59 1871.48 2000.5 1742.81C2224.2 1446.67 2272.49 1272.56 2313.5 957.312C2400.15 726.681 2474.3 622.294 2742 561.812C3010.03 543.567 3063.56 557.17 3242.5 605.812C3457.42 731.654 3537.77 839.78 3550 1155.31C3520.87 1547.7 3596.28 1692.73 3791.5 1901.81C3927.03 2046.11 4022.43 2094.2 4198 2170.81C4416.69 2212.79 4608.31 2217.58 4827 2170.81C4942.97 2061.86 4996.2 1987.99 5052 1813.81C5140.11 1500 5159.43 1331.4 5156.5 1039.81" stroke="black" stroke-width="7"/>
</g>
<defs>
<filter id="filter0_dd" x="0.917969" y="115.5" width="5163.36" height="1937.12" filterUnits="userSpaceOnUse" color-interpolation-filters="sRGB">
<feFlood flood-opacity="0" result="BackgroundImageFix"/>
<feColorMatrix in="SourceAlpha" type="matrix" values="0 0 0 0 0 0 0 0 0 0 0 0 0 0 0 0 0 0 127 0"/>
<feOffset dy="4"/>
<feGaussianBlur stdDeviation="2"/>
<feColorMatrix type="matrix" values="0 0 0 0 0 0 0 0 0 0 0 0 0 0 0 0 0 0 0.25 0"/>
<feBlend mode="normal" in2="BackgroundImageFix" result="effect1_dropShadow"/>
<feColorMatrix in="SourceAlpha" type="matrix" values="0 0 0 0 0 0 0 0 0 0 0 0 0 0 0 0 0 0 127 0"/>
<feOffset dy="4"/>
<feGaussianBlur stdDeviation="2"/>
<feColorMatrix type="matrix" values="0 0 0 0 0 0 0 0 0 0 0 0 0 0 0 0 0 0 0.25 0"/>
<feBlend mode="normal" in2="effect1_dropShadow" result="effect2_dropShadow"/>
<feBlend mode="normal" in="SourceGraphic" in2="effect2_dropShadow" result="shape"/>
</filter>
<filter id="filter1_dd" x="0.917969" y="146.5" width="5163.36" height="1937.12" filterUnits="userSpaceOnUse" color-interpolation-filters="sRGB">
<feFlood flood-opacity="0" result="BackgroundImageFix"/>
<feColorMatrix in="SourceAlpha" type="matrix" values="0 0 0 0 0 0 0 0 0 0 0 0 0 0 0 0 0 0 127 0"/>
<feOffset dy="4"/>
<feGaussianBlur stdDeviation="2"/>
<feColorMatrix type="matrix" values="0 0 0 0 0 0 0 0 0 0 0 0 0 0 0 0 0 0 0.25 0"/>
<feBlend mode="normal" in2="BackgroundImageFix" result="effect1_dropShadow"/>
<feColorMatrix in="SourceAlpha" type="matrix" values="0 0 0 0 0 0 0 0 0 0 0 0 0 0 0 0 0 0 127 0"/>
<feOffset dy="4"/>
<feGaussianBlur stdDeviation="2"/>
<feColorMatrix type="matrix" values="0 0 0 0 0 0 0 0 0 0 0 0 0 0 0 0 0 0 0.25 0"/>
<feBlend mode="normal" in2="effect1_dropShadow" result="effect2_dropShadow"/>
<feBlend mode="normal" in="SourceGraphic" in2="effect2_dropShadow" result="shape"/>
</filter>
<filter id="filter2_dd" x="0.917969" y="247.5" width="5163.36" height="1937.12" filterUnits="userSpaceOnUse" color-interpolation-filters="sRGB">
<feFlood flood-opacity="0" result="BackgroundImageFix"/>
<feColorMatrix in="SourceAlpha" type="matrix" values="0 0 0 0 0 0 0 0 0 0 0 0 0 0 0 0 0 0 127 0"/>
<feOffset dy="4"/>
<feGaussianBlur stdDeviation="2"/>
<feColorMatrix type="matrix" values="0 0 0 0 0 0 0 0 0 0 0 0 0 0 0 0 0 0 0.25 0"/>
<feBlend mode="normal" in2="BackgroundImageFix" result="effect1_dropShadow"/>
<feColorMatrix in="SourceAlpha" type="matrix" values="0 0 0 0 0 0 0 0 0 0 0 0 0 0 0 0 0 0 127 0"/>
<feOffset dy="4"/>
<feGaussianBlur stdDeviation="2"/>
<feColorMatrix type="matrix" values="0 0 0 0 0 0 0 0 0 0 0 0 0 0 0 0 0 0 0.25 0"/>
<feBlend mode="normal" in2="effect1_dropShadow" result="effect2_dropShadow"/>
<feBlend mode="normal" in="SourceGraphic" in2="effect2_dropShadow" result="shape"/>
</filter>
<filter id="filter3_dd" x="0.917969" y="278.5" width="5163.36" height="1937.12" filterUnits="userSpaceOnUse" color-interpolation-filters="sRGB">
<feFlood flood-opacity="0" result="BackgroundImageFix"/>
<feColorMatrix in="SourceAlpha" type="matrix" values="0 0 0 0 0 0 0 0 0 0 0 0 0 0 0 0 0 0 127 0"/>
<feOffset dy="4"/>
<feGaussianBlur stdDeviation="2"/>
<feColorMatrix type="matrix" values="0 0 0 0 0 0 0 0 0 0 0 0 0 0 0 0 0 0 0.25 0"/>
<feBlend mode="normal" in2="BackgroundImageFix" result="effect1_dropShadow"/>
<feColorMatrix in="SourceAlpha" type="matrix" values="0 0 0 0 0 0 0 0 0 0 0 0 0 0 0 0 0 0 127 0"/>
<feOffset dy="4"/>
<feGaussianBlur stdDeviation="2"/>
<feColorMatrix type="matrix" values="0 0 0 0 0 0 0 0 0 0 0 0 0 0 0 0 0 0 0.25 0"/>
<feBlend mode="normal" in2="effect1_dropShadow" result="effect2_dropShadow"/>
<feBlend mode="normal" in="SourceGraphic" in2="effect2_dropShadow" result="shape"/>
</filter>
</defs>
</svg>
