<svg width="2255" height="1132" viewBox="0 0 2255 1132" fill="none" xmlns="http://www.w3.org/2000/svg">
<path d="M81.5341 207.808C81.5341 190.574 84.5254 167.62 80.2709 150.601C75.8276 132.828 83.3237 114.441 80.2709 96.4629C77.5428 80.3979 76.6616 64.979 76.6616 48.6406C76.6616 42.3339 77.6677 34.9355 80.2709 29.1507C84.4372 19.8921 89.3398 18.3529 99.2193 16.1575C108.815 14.0252 116.995 12.9092 127.01 12.9092C134.298 12.9092 160.993 9.56091 164.366 17.1501C169.672 29.0889 173.429 42.8669 167.975 55.1372C164.234 63.5538 154.889 76.1487 146.5 80.7628C141.94 83.2709 134.437 88.8953 129.898 89.2445C127.366 89.4392 123.871 90.2574 121.416 90.9588C121.31 90.9891 133.78 88.4721 137.206 87.7105C154.914 83.7756 175.855 81.8354 191.977 92.583C199.368 97.5105 206.343 98.0137 208.128 107.832C209.913 117.648 209.842 127.115 209.842 137.157C209.842 161.032 199.157 177.732 178.893 189.13C161.259 199.049 143.894 199.925 124.664 204.199C111.62 207.097 96.9775 213.787 83.5191 214.304C78.9189 214.481 41.8262 214.024 41.0204 218.455C38.2404 233.745 47.4707 249.664 62.8563 253.284C79.7341 257.255 96.6351 253.284 112.393 253.284C124.726 253.284 133.919 250.44 143.974 243.178C151 238.104 159.608 234.788 167.524 231.358C172.016 229.411 177.087 223.688 182.232 225.313C184.911 226.159 191.52 219.693 193.601 218.275C200.372 213.658 204.417 208.275 209.481 202.033C216.621 193.233 226.633 182.415 230.595 171.715C245.495 131.485 238.264 86.802 234.114 45.3021C233.41 38.2561 225.013 12.9092 239.889 12.9092C252.799 12.9092 266.051 14.5334 278.418 14.5334C292.958 14.5334 309.348 17.5078 323.172 22.2932C336.297 26.8364 339.594 52.7388 339.594 63.9798C339.594 72.8626 331.83 84.376 326.059 90.1468C317.3 98.9062 298.632 94.8683 286.989 97.4555C284.419 98.0268 282.373 100.445 279.681 100.614C278.398 100.694 286.474 100.672 288.433 101.426C292.839 103.12 298.523 102.238 303.231 102.238C315.577 102.238 331.233 106.678 337.789 118.479C348.349 137.486 343.023 165.559 343.023 185.882C343.023 194.624 333.27 203.132 329.308 211.056C324.502 220.667 323.362 232.343 319.924 242.276C316.359 252.575 306.857 264.025 299.532 271.691C294.013 277.466 292.578 285.302 287.802 290.64C278.09 301.493 279.175 317.216 279.681 330.883C280.841 362.208 331.397 367.571 351.505 357.23C363.281 351.173 375.4 345.774 387.507 340.447C394.395 337.416 396.787 338.586 401.131 331.604C413.14 312.305 422.74 291.814 424.14 268.714C425.761 241.972 425.873 215.218 431.449 188.859C434.127 176.2 438.48 163.937 440.472 151.143C442.384 138.864 442.855 124.289 447.781 112.795C454.542 97.0193 471.182 77.8754 489.919 77.8754C499.993 77.8754 510.29 87.0439 518.612 91.7709C529.549 97.983 543.78 103.001 551.637 113.426C573.055 141.847 570.404 182.49 570.404 215.929C570.404 230.726 572.927 247.018 566.254 260.683C557.144 279.337 546.554 297.225 536.478 315.363C528.141 330.369 522.604 347.816 510.762 360.569C491.899 380.883 465.996 398.45 443.54 414.256C407.629 439.532 245.375 558.181 209.842 584C192.975 596.256 144.59 645.125 124.664 651.942C107.658 657.759 89.5612 693.672 72.0267 697.057C60.5359 699.276 51.9129 712.343 41.1265 716.67C33.3236 719.8 14.1242 780.1 12.5 799.5C10.8758 818.9 62.4204 862.391 67.1641 863.921C87.4021 870.449 105.774 863.772 127.077 863.921C144.688 864.044 162.236 866.133 179.862 865.455C197.482 864.777 211.174 859.284 226.873 851.649C246.062 842.317 267.764 837.987 286.244 827.377C292.008 824.069 295.559 819.598 299.599 814.474C309.888 801.424 321.035 789.027 332.623 777.119C345.537 763.848 359.437 751.764 374.671 741.207C390.648 730.135 571.742 457.073 586.556 444.303C605.052 428.357 618.76 405.064 627.972 382.675C636.91 360.951 637.286 337.983 646.018 316.265C665.165 268.642 698.358 225.111 710.713 174.964C715.028 157.45 717.751 138.726 724.338 121.908C729.271 109.315 737.91 88.5984 750.686 81.8455C758.501 77.7147 765.677 77.104 773.875 80.1312C795.75 88.208 816.397 97.2149 830.811 116.133C843.623 132.95 850.487 156.327 858.692 175.776C865.912 192.889 866.799 208.475 867.986 226.576C870.765 268.958 869.079 309.883 850.842 348.929C829.211 395.241 623.044 679.725 586.556 716.67C563.48 740.034 530.416 756.213 510.762 782.713C502.816 793.426 495.322 838.668 489.919 850.747C485.093 861.534 497.671 864.125 493.414 874.929C490.787 881.598 490.737 899.316 489.919 906.329C488.332 919.931 490.638 925.498 491.52 938.722C492.154 948.243 495.014 958.993 502.798 965.16C513.566 973.69 531.798 974.246 544.666 975.717C557.585 977.193 570.989 978.393 584.006 977.251C607.747 975.168 628.475 964.91 648.882 953.249C675.729 937.908 704.388 924.562 729.458 906.329C778.388 870.744 808.902 811.308 834.126 757.99C842.974 739.287 1016.48 456.383 1024.99 437.535C1037.4 410.025 1044.21 380.172 1049.35 350.553C1057.6 303.018 1060.73 256.344 1060.9 208.169C1060.99 181.705 1060.23 155.035 1067.58 129.307C1072.1 113.457 1076.13 96.0588 1083.1 81.1237C1094.58 56.4954 1109.28 44.4396 1136.24 37.6324C1160.5 31.508 1191.01 28.5342 1215.56 35.106C1239.52 41.5233 1272.1 54.8882 1286.39 76.9731C1303.74 103.789 1301.03 136.18 1299.65 166.482C1297.72 208.771 1291.99 250.698 1288.01 292.805C1286.41 309.721 1284.3 327.33 1279.53 343.695C1278.24 348.123 1278.24 347.608 1275.47 350.553C1268.33 358.125 1262.88 366.564 1257.42 375.457C1244.59 396.372 1233.63 418.397 1220.25 438.979C1205.6 461.512 1026.06 747.618 1011.97 770.532C995.679 797.03 978.046 821.711 966.585 850.747C961.934 862.529 957.999 874.196 951.607 885.215C938.873 907.163 935.82 927.553 937.26 952.888C938.841 980.719 941.338 1020.73 968.841 1036.17C998.485 1052.81 1030.83 1054.12 1064.03 1048.89C1082.98 1045.91 1104.82 1042.52 1121.6 1032.47C1136.95 1023.28 1144.61 1006.69 1152.91 991.688C1170.12 960.599 1189.35 930.174 1201.73 896.765C1215.62 859.258 1230.23 822.338 1236.92 782.713C1240.27 762.875 1405.51 478.151 1408.65 458.288C1413.86 425.323 1423.49 394.338 1433.28 362.554C1443.44 329.585 1451.03 295.913 1461.52 263.029C1469.78 237.171 1470.65 207.983 1482.55 183.536C1495.98 155.94 1517.83 133.637 1541.29 114.329C1558.88 99.8444 1579.4 89.1945 1602.28 87.0789C1645.28 83.1042 1658.54 81.4749 1701.72 81.8455C1714.71 81.9571 1742.87 83.4412 1755.5 87.0789C1765.51 89.9628 1782.12 99.5081 1782.75 108.915C1787.14 174.831 1760.02 238.68 1733.12 297.226C1705.78 356.714 1514.7 681.293 1482.8 738.5C1463.27 773.505 1448.76 795.844 1427.75 830.626C1408.3 862.845 1383.31 897.689 1373.35 934.842C1367.99 954.821 1352.07 991.874 1352.07 1012.62C1352.07 1044.87 1352.07 1045.94 1352.07 1078.19C1352.07 1088.64 1370.76 1104.86 1373.35 1115.19C1375.56 1124.05 1415.56 1117.45 1419.07 1115.19C1446.25 1097.69 1447.97 1081.56 1468.54 1056.65C1479.85 1042.96 1488.35 1027.6 1497.77 1012.62C1507.08 997.827 1518.16 984.522 1527.82 970.032C1532.08 963.641 1535.12 956.785 1538.29 949.821C1546.56 931.651 1557.08 914.519 1566.98 897.216C1588.3 859.979 1601.89 824.226 1603.61 780.728C1604.85 749.577 1769.83 455.789 1774.81 424.993C1777.56 407.93 1780.23 391.873 1789.69 376.991C1808.06 348.101 1833.38 323.099 1856.74 298.219C1865.01 289.407 1874.01 281.514 1881.82 272.233C1893.81 257.991 1904.19 243.274 1917.91 230.546C1956.7 194.557 1973.33 187.433 2024 183.536C2029.01 183.15 2051.47 185.882 2056.5 185.882C2066.83 185.882 2077.92 191.894 2077.62 201.492C2077.22 214.103 2074.12 226.579 2071.48 238.847C2063.53 275.802 2055.14 312.818 2044.51 349.109C2030.52 396.845 1851.36 708.764 1836.95 756.366C1828.72 783.566 1827.99 811.287 1823.78 839.107C1818.9 871.325 1805.95 901.981 1792.02 931.233C1779.63 957.252 1777.76 987.336 1777.76 1015.87C1777.76 1025.98 1775.74 1038.91 1782.81 1047.27C1791.64 1057.7 1809.34 1062.03 1820.44 1069.83C1836.01 1080.77 1860.17 1072.87 1874.31 1063.33C1901.46 1045 1922.33 1021.71 1934.58 991.237C1948.66 956.215 1968.46 923.987 1984.93 890.088C1998.12 862.932 2009.89 835.116 2024 808.429C2039.77 778.606 2223.53 482.748 2229.21 448.904C2230.92 438.698 2229.15 428.476 2229.39 418.226C2229.67 406.086 2234.17 394.793 2237.33 383.216C2239.07 376.834 2246.32 359.798 2240.03 355.606" stroke="#23D997" stroke-width="23" stroke-linecap="round" stroke-linejoin="round"/>
</svg>
