<svg width="784" height="442" viewBox="0 0 784 442" fill="none" xmlns="http://www.w3.org/2000/svg">
<path d="M25 227C20.4205 216.06 70.2222 163.556 29.0556 113.611C20.7317 94.1156 15.0743 73.9679 8.44444 53.8889C7.54475 51.1641 5 46.2946 5 43.5C5 41.187 7.21837 39.9705 9 38.8333C16.5705 34.0011 25.4859 30.083 33.9444 27.1111C39.3602 25.2083 44.1026 26.9703 49.9444 27.1111C56.2661 27.2634 59.0174 31.5328 60 36.3333C61.6336 44.3148 62 52.225 62 60.3333C62 62.326 62.6913 65.5899 61.2222 67.2222C59.0337 69.6539 46.5535 85.8007 44 88.1111C40.684 91.1113 50.4761 75.0082 54 73.9444C65.0418 70.611 77.2837 69.6273 88.7222 70.8889C128.264 75.2501 127.119 141.386 91.6667 152.389C84.9423 154.476 77.2218 153.778 70.2222 155.778C64.0141 157.551 56.3914 158.25 49.9444 159.056C43.7543 159.829 38.2788 161 32 161C28.3309 161 5 159.349 5 163.556C5 167.999 23.4428 176.141 28.5556 178C36.8676 181.023 45.9927 180.142 54.7778 180C70.3838 179.748 84.992 178.728 98 172C114.221 163.61 132.401 142.224 136.278 124.778C139.761 109.103 129.806 87.201 122 72C114.34 57.0822 110 40.92 110 24.0555C110 16.8681 129 9.00001 136.278 8.99999C157.5 -1.00005 171.039 13.3878 172 24.0555C172.853 33.5241 167.713 54.0484 160 60.3333C156.179 63.447 132.929 83.6641 125.651 79.345M125.651 79.345C139.019 75.5117 125.651 78.1616 125.651 79.345ZM125.651 79.345C125.651 80.4191 121.593 80 122.667 80C127.534 80 162.057 68.7412 166.5 70.8889C191.37 82.9094 186 101.497 186 128.556C186 139.94 36.5 282 209 227C212.63 227 300 215 284.5 180C237 172 237 142.333 242 142.333C220 111.333 237.351 81.7173 248.222 67.2222C253.389 60.3333 257 45.5555 305 36.3333C353 27.1111 372 55.6783 377 79.345C393 108.956 395.047 167.152 393 180C388.571 207.794 350.762 235.716 330 254.611C288 292.833 287.628 380.481 305 404C312.241 413.803 330 448 381 432C416 432 517.108 377.924 521 370.889C531.319 352.236 535 304.833 529 269.444C510 235.833 490 222.833 490 194.833C490 166.833 496.96 139.667 515.111 129.167C526.445 122.61 581.924 103.517 595 105.833C612.484 108.931 648.891 113.571 653 129.167C663.339 168.41 662.884 213.852 663 254.111C663.102 289.548 661.642 325.27 663.667 360.667C665.343 389.969 673.232 424.503 705.944 432C711.377 433.245 766.639 418.384 771.611 414.333C779.863 407.609 778.156 389.481 778.5 380.611C780.163 337.733 733.389 310.611 734 269.444C733.389 254.111 733.66 250.599 735 241.222" stroke="#23D997" stroke-width="10" stroke-linecap="round" stroke-linejoin="round"/>
</svg>
