<svg width="2215" height="855" viewBox="0 0 2215 855" fill="none" xmlns="http://www.w3.org/2000/svg">
<path d="M47.5343 201.808C47.5343 184.574 50.5256 161.62 46.2711 144.601C41.8278 126.828 49.3239 108.441 46.2711 90.4629C43.543 74.3979 42.6618 58.979 42.6618 42.6406C42.6618 36.3339 43.6679 28.9355 46.2711 23.1507C50.4374 13.8921 55.3401 12.3529 65.2195 10.1575C74.8151 8.02516 82.9958 6.9092 93.0106 6.9092C100.298 6.9092 126.993 3.56091 130.366 11.1501C135.672 23.0889 139.429 36.8669 133.975 49.1372C130.235 57.5538 120.89 70.1487 112.5 74.7628C107.94 77.2709 100.437 82.8953 95.898 83.2445C93.3664 83.4392 89.8715 84.2574 87.4163 84.9588C87.3105 84.9891 99.7799 82.4721 103.207 81.7105C120.914 77.7756 141.855 75.8354 157.977 86.583C165.368 91.5105 172.343 92.0137 174.128 101.832C175.913 111.648 175.842 121.115 175.842 131.157C175.842 155.032 165.157 171.732 144.893 183.13C127.259 193.049 109.894 193.925 90.6646 198.199C77.62 201.097 62.9778 207.787 49.5194 208.304C44.9191 208.481 7.82639 208.024 7.02066 212.455C4.24065 227.745 13.4709 243.664 28.8565 247.284C45.7343 251.255 62.6354 247.284 78.3932 247.284C90.7258 247.284 99.9198 244.44 109.974 237.178C117.001 232.104 125.608 228.788 133.524 225.358C138.016 223.411 143.087 217.688 148.232 219.313C150.911 220.159 157.52 213.693 159.601 212.275C166.372 207.658 170.418 202.275 175.482 196.033C182.621 187.233 192.633 176.415 196.596 165.715C211.496 125.485 204.265 80.802 200.115 39.3021C199.41 32.2561 191.013 6.9092 205.889 6.9092C218.799 6.9092 232.051 8.53336 244.418 8.53336C258.958 8.53336 275.348 11.5078 289.172 16.2932C302.297 20.8364 305.594 46.7388 305.594 57.9798C305.594 66.8626 297.831 78.376 292.06 84.1468C283.3 92.9062 264.632 88.8683 252.99 91.4555C250.419 92.0268 248.373 94.4453 245.681 94.6135C244.398 94.6937 252.474 94.672 254.434 95.4256C258.839 97.1201 264.524 96.2377 269.231 96.2377C281.577 96.2377 297.234 100.678 303.79 112.479C314.349 131.486 309.023 159.559 309.023 179.882C309.023 188.624 299.27 197.132 295.308 205.056C290.503 214.667 289.362 226.343 285.924 236.276C282.359 246.575 272.857 258.025 265.532 265.691C260.014 271.466 258.578 279.302 253.802 284.64C244.091 295.493 245.175 311.216 245.681 324.883C246.841 356.208 297.397 361.571 317.505 351.23C329.282 345.173 341.4 339.774 353.507 334.447C360.395 331.416 362.787 332.586 367.132 325.604C379.141 306.305 388.741 285.814 390.141 262.714C391.761 235.972 391.873 209.218 397.449 182.859C400.127 170.2 404.48 157.937 406.472 145.143C408.385 132.864 408.855 118.289 413.781 106.795C420.542 91.0193 437.182 71.8754 455.919 71.8754C465.993 71.8754 476.29 81.0439 484.612 85.7709C495.549 91.983 509.78 97.001 517.637 107.426C539.055 135.847 536.405 176.49 536.405 209.929C536.405 224.726 538.928 241.018 532.254 254.683C523.144 273.337 512.555 291.225 502.478 309.363C494.141 324.369 488.604 341.816 476.762 354.569C457.899 374.883 431.997 392.45 409.54 408.256C373.629 433.532 337.879 458.953 302.346 484.772C285.479 497.027 270.299 512.513 250.373 519.33C233.367 525.148 215.935 526.502 198.4 529.887C186.909 532.105 178.286 545.173 167.5 549.5C159.697 552.63 166.621 569.026 159.601 573.829C157.977 593.229 191.852 591.699 196.596 593.229C216.834 599.757 235.205 593.08 256.509 593.229C274.12 593.352 291.668 595.441 309.294 594.763C326.914 594.085 340.606 588.592 356.304 580.958C375.494 571.626 397.195 567.295 415.676 556.685C421.439 553.377 424.99 548.907 429.03 543.783C439.32 530.732 450.467 518.335 462.055 506.427C474.968 493.156 488.868 481.072 504.102 470.515C520.079 459.443 537.743 451.073 552.556 438.303C571.053 422.357 584.761 399.064 593.972 376.675C602.91 354.951 603.286 331.983 612.018 310.265C631.166 262.642 664.359 219.111 676.714 168.964C681.029 151.45 683.752 132.726 690.339 115.908C695.271 103.315 703.91 82.5984 716.686 75.8455C724.501 71.7147 731.677 71.104 739.875 74.1312C761.75 82.208 782.397 91.2149 796.811 110.133C809.624 126.95 816.487 150.327 824.692 169.776C831.912 186.889 832.799 202.475 833.986 220.576C836.765 262.958 835.079 303.883 816.842 342.929C795.211 389.241 775.191 434.202 738.702 471.147C715.626 494.511 684.728 511.869 665.074 538.369C657.128 549.082 646.567 561.75 641.163 573.829C636.337 584.616 627.102 593.433 622.846 604.237C620.219 610.906 620.957 622.037 620.139 629.051C618.552 642.653 620.069 654.806 620.951 668.03C621.586 677.551 624.445 688.301 632.23 694.468C642.998 702.998 661.23 703.554 674.097 705.025C687.016 706.501 700.421 707.701 713.438 706.559C737.178 704.476 757.907 694.219 778.314 682.557C805.16 667.217 833.819 653.871 858.89 635.637C907.82 600.052 938.333 540.616 963.557 487.298C972.406 468.595 982.483 450.383 990.988 431.535C1003.4 404.025 1010.21 374.172 1015.35 344.553C1023.6 297.018 1026.73 250.344 1026.9 202.169C1026.99 175.705 1026.23 149.035 1033.58 123.307C1038.1 107.457 1042.13 90.0588 1049.1 75.1237C1060.58 50.4954 1075.28 38.4396 1102.24 31.6324C1126.5 25.508 1157.01 22.5342 1181.56 29.106C1205.52 35.5233 1238.1 48.8882 1252.39 70.9731C1269.74 97.7886 1267.03 130.18 1265.65 160.482C1263.72 202.771 1257.99 244.698 1254.01 286.805C1252.41 303.721 1250.3 321.33 1245.53 337.695C1244.24 342.123 1244.24 341.608 1241.47 344.553C1234.33 352.125 1228.88 360.564 1223.42 369.457C1210.59 390.372 1199.63 412.397 1186.25 432.979C1171.6 455.512 1155.49 476.926 1141.4 499.84C1125.11 526.338 1107.48 551.019 1096.02 580.055C1091.37 591.838 1087.43 603.504 1081.04 614.523C1068.3 636.471 1065.25 656.861 1066.69 682.197C1068.27 710.028 1070.77 750.04 1098.27 765.48C1127.92 782.122 1160.26 783.431 1193.47 778.202C1212.41 775.219 1234.25 771.83 1251.03 761.78C1266.38 752.588 1274.04 735.998 1282.34 720.996C1299.55 689.907 1318.78 659.482 1331.16 626.073C1345.05 588.566 1359.66 551.646 1366.35 512.021C1369.7 492.183 1371.51 472.151 1374.65 452.288C1379.86 419.323 1389.49 388.338 1399.28 356.554C1409.44 323.585 1417.03 289.913 1427.52 257.029C1435.78 231.171 1436.65 201.983 1448.55 177.536C1461.98 149.94 1483.83 127.637 1507.29 108.329C1524.88 93.8444 1545.4 83.1945 1568.28 81.0789C1611.28 77.1042 1624.54 75.4749 1667.72 75.8455C1680.71 75.9571 1708.87 77.4412 1721.5 81.0789C1731.51 83.9628 1748.12 93.5081 1748.75 102.915C1753.14 168.831 1726.02 232.68 1699.12 291.226C1671.78 350.714 1644.13 410.601 1612.23 467.808C1592.7 502.813 1578.19 525.152 1557.19 559.934C1537.73 592.153 1512.74 626.998 1502.78 664.15C1497.42 684.129 1481.5 721.182 1481.5 741.929C1481.5 774.179 1481.5 775.244 1481.5 807.5C1481.5 817.945 1500.19 834.172 1502.78 844.5C1504.99 853.355 1544.99 846.761 1548.5 844.5C1575.69 827.003 1577.4 810.87 1597.97 785.962C1609.28 772.265 1617.78 756.913 1627.21 741.929C1636.51 727.135 1647.59 713.83 1657.25 699.34C1661.51 692.949 1664.55 686.094 1667.72 679.129C1675.99 660.959 1686.51 643.827 1696.41 626.524C1717.73 589.287 1731.32 553.534 1733.05 510.036C1734.28 478.885 1735.83 449.789 1740.81 418.993C1743.56 401.93 1746.23 385.873 1755.69 370.991C1774.06 342.101 1799.38 317.099 1822.74 292.219C1831.01 283.407 1840.01 275.514 1847.82 266.233C1859.81 251.991 1870.19 237.274 1883.91 224.546C1922.7 188.557 1939.33 181.433 1990 177.536C1995.01 177.15 2017.47 179.882 2022.5 179.882C2032.83 179.882 2043.92 185.894 2043.62 195.492C2043.22 208.103 2040.12 220.579 2037.48 232.847C2029.53 269.802 2021.14 306.818 2010.51 343.109C1996.52 390.845 1980.79 438.072 1966.38 485.674C1958.15 512.874 1957.42 540.595 1953.21 568.416C1948.33 600.633 1935.38 631.289 1921.45 660.541C1909.06 686.56 1907.19 716.644 1907.19 745.178C1907.19 755.289 1905.17 768.217 1912.24 776.578C1921.07 787.006 1938.77 791.338 1949.87 799.136C1965.44 810.078 1989.6 802.181 2003.74 792.639C2030.89 774.312 2051.76 751.018 2064.01 720.545C2078.09 685.523 2097.89 653.296 2114.36 619.396C2127.55 592.24 2139.32 564.424 2153.43 537.737C2169.2 507.914 2189.53 476.748 2195.21 442.904C2196.92 432.698 2195.15 422.476 2195.39 412.226C2195.67 400.086 2200.17 388.793 2203.33 377.216C2205.07 370.834 2212.32 353.798 2206.04 349.606" stroke="#23D997" stroke-width="12" stroke-linecap="round" stroke-linejoin="round"/>
</svg>
