<svg width="2529" height="1080" viewBox="0 0 2529 1080" fill="none" xmlns="http://www.w3.org/2000/svg">
<path d="M156.5 9V280.5L313 266.5V191L214.5 156.5L313 114V36.5L156.5 9Z" fill="#C4C4C4"/>
<path d="M384.5 266.5V9L539 36.5V114L438.5 156.5L562.5 278.5L1 326.5L611 367.5L934 9L676.5 479.5L1172 114L974.5 479.5L1451 9L1172 729.5L1665.5 135L1437.5 1070L2012 9L1921 1076C2126.33 710.167 2533.9 36.5 2521.5 36.5M156.5 280.5V9L313 36.5V114L214.5 156.5L313 191V266.5L156.5 280.5Z" stroke="#23D997" stroke-width="14"/>
</svg>
