<svg width="2566" height="1136" viewBox="0 0 2566 1136" fill="none" xmlns="http://www.w3.org/2000/svg">
<path d="M145.5 49V318.5L302 306.5V231L203.5 196.5L302 154V76.5L145.5 49Z" fill="#C4C4C4"/>
<path d="M387.5 306.5V49L542 76.5V154L441.5 196.5L565.5 318.5L4 366.5L614 407.5L937 49L679.5 519.5L1175 154L977.5 519.5L1454 49L1175 769.5L1668.5 175L1440.5 1110L2015 49L1924 1116C2129.33 750.167 2536.9 76.5 2524.5 76.5M145.5 318.5V49L302 76.5V154L203.5 196.5L302 231V306.5L145.5 318.5Z" stroke="#23D997" stroke-width="81"/>
</svg>
