<svg width="2275" height="1152" viewBox="0 0 2275 1152" fill="none" xmlns="http://www.w3.org/2000/svg">
<path d="M91.5341 217.808C91.5341 200.574 94.5254 177.62 90.2709 160.601C85.8276 142.828 93.3237 124.441 90.2709 106.463C87.5428 90.3979 86.6616 74.979 86.6616 58.6406C86.6616 52.3339 87.6677 44.9355 90.2709 39.1507C94.4372 29.8921 99.3398 28.3529 109.219 26.1575C118.815 24.0252 126.995 22.9092 137.01 22.9092C144.298 22.9092 170.993 19.5609 174.366 27.1501C179.672 39.0889 183.429 52.8669 177.975 65.1372C174.234 73.5538 164.889 86.1487 156.5 90.7628C151.94 93.2709 144.437 98.8953 139.898 99.2445C137.366 99.4392 133.871 100.257 131.416 100.959C131.31 100.989 143.78 98.4721 147.206 97.7105C164.914 93.7756 185.855 91.8354 201.977 102.583C209.368 107.51 216.343 108.014 218.128 117.832C219.913 127.648 219.842 137.115 219.842 147.157C219.842 171.032 209.157 187.732 188.893 199.13C171.259 209.049 153.894 209.925 134.664 214.199C121.62 217.097 106.978 223.787 93.5191 224.304C88.9189 224.481 51.8262 224.024 51.0204 228.455C48.2404 243.745 57.4707 259.664 72.8563 263.284C89.7341 267.255 106.635 263.284 122.393 263.284C134.726 263.284 143.919 260.44 153.974 253.178C161 248.104 169.608 244.788 177.524 241.358C182.016 239.411 187.087 233.688 192.232 235.313C194.911 236.159 201.52 229.693 203.601 228.275C210.372 223.658 214.417 218.275 219.481 212.033C226.621 203.233 236.633 192.415 240.595 181.715C255.495 141.485 248.264 96.802 244.114 55.3021C243.41 48.2561 235.013 22.9092 249.889 22.9092C262.799 22.9092 276.051 24.5334 288.418 24.5334C302.958 24.5334 319.348 27.5078 333.172 32.2932C346.297 36.8364 349.594 62.7388 349.594 73.9798C349.594 82.8626 341.83 94.376 336.059 100.147C327.3 108.906 308.632 104.868 296.989 107.455C294.419 108.027 292.373 110.445 289.681 110.614C288.398 110.694 296.474 110.672 298.433 111.426C302.839 113.12 308.523 112.238 313.231 112.238C325.577 112.238 341.233 116.678 347.789 128.479C358.349 147.486 353.023 175.559 353.023 195.882C353.023 204.624 343.27 213.132 339.308 221.056C334.502 230.667 333.362 242.343 329.924 252.276C326.359 262.575 316.857 274.025 309.532 281.691C304.013 287.466 302.578 295.302 297.802 300.64C288.09 311.493 289.175 327.216 289.681 340.883C290.841 372.208 341.397 377.571 361.505 367.23C373.281 361.173 385.4 355.774 397.507 350.447C404.395 347.416 406.787 348.586 411.131 341.604C423.14 322.305 432.74 301.814 434.14 278.714C435.761 251.972 435.873 225.218 441.449 198.859C444.127 186.2 448.48 173.937 450.472 161.143C452.384 148.864 452.855 134.289 457.781 122.795C464.542 107.019 481.182 87.8754 499.919 87.8754C509.993 87.8754 520.29 97.0439 528.612 101.771C539.549 107.983 553.78 113.001 561.637 123.426C583.055 151.847 580.404 192.49 580.404 225.929C580.404 240.726 582.927 257.018 576.254 270.683C567.144 289.337 556.554 307.225 546.478 325.363C538.141 340.369 532.604 357.816 520.762 370.569C501.899 390.883 475.996 408.45 453.54 424.256C417.629 449.532 255.375 568.181 219.842 594C202.975 606.256 154.59 655.125 134.664 661.942C117.658 667.759 99.5612 703.672 82.0267 707.057C70.5359 709.276 61.9129 722.343 51.1265 726.67C43.3236 729.8 24.1242 790.1 22.5 809.5C20.8758 828.9 72.4204 872.391 77.1641 873.921C97.4021 880.449 115.774 873.772 137.077 873.921C154.688 874.044 172.236 876.133 189.862 875.455C207.482 874.777 221.174 869.284 236.873 861.649C256.062 852.317 277.764 847.987 296.244 837.377C302.008 834.069 305.559 829.598 309.599 824.474C319.888 811.424 331.035 799.027 342.623 787.119C355.537 773.848 369.437 761.764 384.671 751.207C400.648 740.135 581.742 467.073 596.556 454.303C615.052 438.357 628.76 415.064 637.972 392.675C646.91 370.951 647.286 347.983 656.018 326.265C675.165 278.642 708.358 235.111 720.713 184.964C725.028 167.45 727.751 148.726 734.338 131.908C739.271 119.315 747.91 98.5984 760.686 91.8455C768.501 87.7147 775.677 87.104 783.875 90.1312C805.75 98.208 826.397 107.215 840.811 126.133C853.623 142.95 860.487 166.327 868.692 185.776C875.912 202.889 876.799 218.475 877.986 236.576C880.765 278.958 879.079 319.883 860.842 358.929C839.211 405.241 633.044 689.725 596.556 726.67C573.48 750.034 540.416 766.213 520.762 792.713C512.816 803.426 505.322 848.668 499.919 860.747C495.093 871.534 507.671 874.125 503.414 884.929C500.787 891.598 500.737 909.316 499.919 916.329C498.332 929.931 500.638 935.498 501.52 948.722C502.154 958.243 505.014 968.993 512.798 975.16C523.566 983.69 541.798 984.246 554.666 985.717C567.585 987.193 580.989 988.393 594.006 987.251C617.747 985.168 638.475 974.91 658.882 963.249C685.729 947.908 714.388 934.562 739.458 916.329C788.388 880.744 818.902 821.308 844.126 767.99C852.974 749.287 1026.48 466.383 1034.99 447.535C1047.4 420.025 1054.21 390.172 1059.35 360.553C1067.6 313.018 1070.73 266.344 1070.9 218.169C1070.99 191.705 1070.23 165.035 1077.58 139.307C1082.1 123.457 1086.13 106.059 1093.1 91.1237C1104.58 66.4954 1119.28 54.4396 1146.24 47.6324C1170.5 41.508 1201.01 38.5342 1225.56 45.106C1249.52 51.5233 1282.1 64.8882 1296.39 86.9731C1313.74 113.789 1311.03 146.18 1309.65 176.482C1307.72 218.771 1301.99 260.698 1298.01 302.805C1296.41 319.721 1294.3 337.33 1289.53 353.695C1288.24 358.123 1288.24 357.608 1285.47 360.553C1278.33 368.125 1272.88 376.564 1267.42 385.457C1254.59 406.372 1243.63 428.397 1230.25 448.979C1215.6 471.512 1036.06 757.618 1021.97 780.532C1005.68 807.03 988.046 831.711 976.585 860.747C971.934 872.529 967.999 884.196 961.607 895.215C948.873 917.163 945.82 937.553 947.26 962.888C948.841 990.719 951.338 1030.73 978.841 1046.17C1008.49 1062.81 1040.83 1064.12 1074.03 1058.89C1092.98 1055.91 1114.82 1052.52 1131.6 1042.47C1146.95 1033.28 1154.61 1016.69 1162.91 1001.69C1180.12 970.599 1199.35 940.174 1211.73 906.765C1225.62 869.258 1240.23 832.338 1246.92 792.713C1250.27 772.875 1415.51 488.151 1418.65 468.288C1423.86 435.323 1433.49 404.338 1443.28 372.554C1453.44 339.585 1461.03 305.913 1471.52 273.029C1479.78 247.171 1480.65 217.983 1492.55 193.536C1505.98 165.94 1527.83 143.637 1551.29 124.329C1568.88 109.844 1589.4 99.1945 1612.28 97.0789C1655.28 93.1042 1668.54 91.4749 1711.72 91.8455C1724.71 91.9571 1752.87 93.4412 1765.5 97.0789C1775.51 99.9628 1792.12 109.508 1792.75 118.915C1797.14 184.831 1770.02 248.68 1743.12 307.226C1715.78 366.714 1524.7 691.293 1492.8 748.5C1473.27 783.505 1458.76 805.844 1437.75 840.626C1418.3 872.845 1393.31 907.689 1383.35 944.842C1377.99 964.821 1362.07 1001.87 1362.07 1022.62C1362.07 1054.87 1362.07 1055.94 1362.07 1088.19C1362.07 1098.64 1380.76 1114.86 1383.35 1125.19C1385.56 1134.05 1425.56 1127.45 1429.07 1125.19C1456.25 1107.69 1457.97 1091.56 1478.54 1066.65C1489.85 1052.96 1498.35 1037.6 1507.77 1022.62C1517.08 1007.83 1528.16 994.522 1537.82 980.032C1542.08 973.641 1545.12 966.785 1548.29 959.821C1556.56 941.651 1567.08 924.519 1576.98 907.216C1598.3 869.979 1611.89 834.226 1613.61 790.728C1614.85 759.577 1779.83 465.789 1784.81 434.993C1787.56 417.93 1790.23 401.873 1799.69 386.991C1818.06 358.101 1843.38 333.099 1866.74 308.219C1875.01 299.407 1884.01 291.514 1891.82 282.233C1903.81 267.991 1914.19 253.274 1927.91 240.546C1966.7 204.557 1983.33 197.433 2034 193.536C2039.01 193.15 2061.47 195.882 2066.5 195.882C2076.83 195.882 2087.92 201.894 2087.62 211.492C2087.22 224.103 2084.12 236.579 2081.48 248.847C2073.53 285.802 2065.14 322.818 2054.51 359.109C2040.52 406.845 1861.36 718.764 1846.95 766.366C1838.72 793.566 1837.99 821.287 1833.78 849.107C1828.9 881.325 1815.95 911.981 1802.02 941.233C1789.63 967.252 1787.76 997.336 1787.76 1025.87C1787.76 1035.98 1785.74 1048.91 1792.81 1057.27C1801.64 1067.7 1819.34 1072.03 1830.44 1079.83C1846.01 1090.77 1870.17 1082.87 1884.31 1073.33C1911.46 1055 1932.33 1031.71 1944.58 1001.24C1958.66 966.215 1978.46 933.987 1994.93 900.088C2008.12 872.932 2019.89 845.116 2034 818.429C2049.77 788.606 2233.53 492.748 2239.21 458.904C2240.92 448.698 2239.15 438.476 2239.39 428.226C2239.67 416.086 2244.17 404.793 2247.33 393.216C2249.07 386.834 2256.32 369.798 2250.03 365.606" stroke="#23D997" stroke-width="44" stroke-linecap="round" stroke-linejoin="round"/>
</svg>
